# xmcd
#
# Track frame offsets: 
#        150
#        18283
#        32745
#        43376
#        51170
#        65316
#        80868
#        100676
#        109042
#        123271
#        133299
#        144477
#        159246
#        184958
#        195291
#        207871
#        219267
#        234525
#        244513
#        263228
#        277934
#        286630
#        300090
#        308167
#        317583
#        330560
#
# Disc length: 4637 seconds
#
# Revision: 0
# Processed by: cddbd v1.5.2PL0 Copyright (c) Steve Scherf et al.
# Submitted via: ExactAudioCopy v1.0b3
#
DISCID=63121b1a
DTITLE=Marty Robbins - Essential [CD2]
DYEAR=1900
DGENRE=Country
TTITLE0=Big Iron
TTITLE1=Cool Water
TTITLE2=Billy The Kid
TTITLE3=A Hundred And Sixty Acres
TTITLE4=They're Hanging Me Tonight
TTITLE5=The Strawberry Roan
TTITLE6=El Paso
TTITLE7=In The Valley
TTITLE8=The Master's Call
TTITLE9=Running Gun
TTITLE10=The Little Green Valley
TTITLE11=Utah Carol
TTITLE12=San Angelo
TTITLE13=Prairie Fire
TTITLE14=The Streets Of Laredo
TTITLE15=Song Of The Bandit
TTITLE16=I've Got No Use For The Women
TTITLE17=Five Brothers
TTITLE18=Little Joe The Wrangler
TTITLE19=Ride, Cowboy Ride
TTITLE20=This Peaceful Sod
TTITLE21=She Was Young And She Was Pretty
TTITLE22=My Love
TTITLE23=Saddle Tramp
TTITLE24=The Hanging Tree
TTITLE25=Ballad Of The Alamo
EXTD=
EXTT0=
EXTT1=
EXTT2=
EXTT3=
EXTT4=
EXTT5=
EXTT6=
EXTT7=
EXTT8=
EXTT9=
EXTT10=
EXTT11=
EXTT12=
EXTT13=
EXTT14=
EXTT15=
EXTT16=
EXTT17=
EXTT18=
EXTT19=
EXTT20=
EXTT21=
EXTT22=
EXTT23=
EXTT24=
EXTT25=
PLAYORDER=
